<mxfile host="app.diagrams.net" modified="2024-03-04T11:58:20.772Z" agent="Mozilla/5.0 (Macintosh; Intel Mac OS X 10_15_7) AppleWebKit/537.36 (KHTML, like Gecko) Chrome/122.0.0.0 Safari/537.36" etag="HIZScuZzi5njSxJZONtZ" version="23.0.1" type="github">
  <diagram name="第 1 页" id="F5Kp0ODWXlRr4U5UHHhu">
    <mxGraphModel dx="920" dy="1776" grid="1" gridSize="10" guides="1" tooltips="1" connect="1" arrows="1" fold="1" page="1" pageScale="1" pageWidth="827" pageHeight="1169" math="0" shadow="0">
      <root>
        <mxCell id="0" />
        <mxCell id="1" parent="0" />
        <mxCell id="TGM9SdLBbR0cxj2N23jX-2" value="&lt;h1&gt;&lt;b style=&quot;border-color: var(--border-color); font-size: 12px; text-align: center;&quot;&gt;&lt;font style=&quot;border-color: var(--border-color); font-size: 24px;&quot;&gt;饰品同步&lt;/font&gt;&lt;/b&gt;&lt;br&gt;&lt;/h1&gt;&lt;div&gt;&lt;font style=&quot;font-size: 14px;&quot;&gt;旨在基于NSDA的云端自动收发货功能，提供将BUFF、UU在售同步到C5在售的能力。&lt;/font&gt;&lt;/div&gt;&lt;div&gt;&lt;span style=&quot;font-size: 14px;&quot;&gt;对用户来说，出货更快。&lt;/span&gt;&lt;/div&gt;" style="text;html=1;strokeColor=none;fillColor=none;spacing=5;spacingTop=-20;whiteSpace=wrap;overflow=hidden;rounded=0;" vertex="1" parent="1">
          <mxGeometry x="20" width="560" height="130" as="geometry" />
        </mxCell>
        <mxCell id="TGM9SdLBbR0cxj2N23jX-12" value="1.NSDA：获取用户BUFF、UU在售&lt;br&gt;2.同步到C5在售" style="text;html=1;strokeColor=none;fillColor=none;align=left;verticalAlign=middle;whiteSpace=wrap;rounded=0;" vertex="1" parent="1">
          <mxGeometry x="10" y="120" width="280" height="40" as="geometry" />
        </mxCell>
        <mxCell id="TGM9SdLBbR0cxj2N23jX-14" value="1.检测到BUFF、UU待发货，下架C5---&amp;gt;走当前流程。&lt;br&gt;2.检测到C5待发货，先去查询BUFF、UU有无该饰品的待发货，有的话C5取消订单，没有的话C5出售，自动发货。" style="text;html=1;strokeColor=none;fillColor=none;align=left;verticalAlign=middle;whiteSpace=wrap;rounded=0;" vertex="1" parent="1">
          <mxGeometry y="170" width="360" height="120" as="geometry" />
        </mxCell>
        <mxCell id="TGM9SdLBbR0cxj2N23jX-15" value="发货" style="text;html=1;strokeColor=none;fillColor=none;align=center;verticalAlign=middle;whiteSpace=wrap;rounded=0;" vertex="1" parent="1">
          <mxGeometry x="20" y="150" width="60" height="30" as="geometry" />
        </mxCell>
        <mxCell id="TGM9SdLBbR0cxj2N23jX-27" style="edgeStyle=orthogonalEdgeStyle;rounded=0;orthogonalLoop=1;jettySize=auto;html=1;exitX=1;exitY=0.5;exitDx=0;exitDy=0;entryX=1;entryY=0.5;entryDx=0;entryDy=0;" edge="1" parent="1" source="TGM9SdLBbR0cxj2N23jX-25">
          <mxGeometry relative="1" as="geometry">
            <mxPoint x="450" y="750" as="targetPoint" />
          </mxGeometry>
        </mxCell>
      </root>
    </mxGraphModel>
  </diagram>
</mxfile>
